<svg width="452" height="79" viewBox="0 0 452 79" fill="none" xmlns="http://www.w3.org/2000/svg">
<g clip-path="url(#clip0)">
<rect width="452" height="79" fill="white"/>
<ellipse cx="39.9382" cy="38.7027" rx="35.9382" ry="35.6311" fill="url(#paint0_linear)"/>
<path d="M23.4572 43.3381C16.1829 37.7195 13.864 23.688 17.1037 11.2186C19.774 9.15844 22.3129 7.28837 25.575 5.88094C26.824 5.34204 28.6771 4.63537 30.6393 4.10173C33.4507 3.33714 36.072 3.07166 36.2562 3.07166C36.4403 3.07166 33.3096 6.53642 31.1918 15.7134C29.9185 21.6799 30.3052 30.2428 33.0334 34.2547C35.7616 38.2666 37.2061 41.5529 38.1899 46.241C40.0887 53.8552 40.8828 63.3221 39.6631 74.3338C36.3262 58.5064 30.7314 48.9566 23.4572 43.3381Z" fill="url(#paint1_linear)"/>
<path d="M33.8839 35.8564C28.5305 28.2527 29.4155 14.0036 36.3404 3.10704C41.9309 2.22501 48.7571 4.13541 49.5578 4.32566C50.3585 4.51591 57.2445 6.66916 60.7129 9.66886C60.7129 9.66886 52.5575 15.9495 49.5578 25.3235C46.5581 34.6976 49.1829 33.104 49.1829 42.5717C49.1828 52.0395 44.6833 65.1632 39.8088 74.4434C41.3717 58.315 39.2373 43.4601 33.8839 35.8564Z" fill="url(#paint2_linear)"/>
<path d="M48.546 35.9471C46.5075 26.9143 51.9819 17.7884 60.798 9.67438C66.5652 14.1705 69.1698 17.3751 72.2669 23.7178C75.4397 30.818 76.3584 36.708 74.9975 46.1874C71.5283 57.8709 66.3246 66.2563 52.9181 72.0118C47.9813 73.8573 45.0867 74.2702 39.8088 74.4434C47.4215 59.9916 50.5846 44.98 48.546 35.9471Z" fill="url(#paint3_linear)" fill-opacity="0.7"/>
<path d="M157.968 17.264C158.4 16.112 159.048 15.248 159.912 14.672C160.824 14.048 161.832 13.736 162.936 13.736C164.328 13.736 165.504 14.168 166.464 15.032C167.472 15.896 167.976 17.072 167.976 18.56C167.976 19.28 167.832 20.072 167.544 20.936L152.568 61.904C152.136 63.056 151.368 63.968 150.264 64.64C149.208 65.264 148.032 65.576 146.736 65.576C145.44 65.576 144.264 65.264 143.208 64.64C142.152 63.968 141.408 63.056 140.976 61.904L130.248 31.592L119.232 61.904C118.8 63.056 118.056 63.968 117 64.64C115.944 65.264 114.768 65.576 113.472 65.576C112.224 65.576 111.048 65.264 109.944 64.64C108.888 63.968 108.144 63.056 107.712 61.904L92.736 20.936C92.448 20.12 92.304 19.352 92.304 18.632C92.304 17.144 92.832 15.968 93.888 15.104C94.944 14.192 96.192 13.736 97.632 13.736C98.784 13.736 99.816 14.048 100.728 14.672C101.688 15.248 102.384 16.112 102.816 17.264L113.904 49.16L125.424 17.408C125.856 16.256 126.528 15.368 127.44 14.744C128.4 14.12 129.408 13.808 130.464 13.808C131.568 13.808 132.576 14.12 133.488 14.744C134.4 15.368 135.072 16.28 135.504 17.48L146.52 49.736L157.968 17.264ZM198.247 28.928C199.927 28.928 201.247 29.384 202.207 30.296C203.215 31.208 203.719 32.456 203.719 34.04V60.464C203.719 61.952 203.191 63.152 202.135 64.064C201.127 64.976 199.807 65.432 198.175 65.432C196.639 65.432 195.415 65 194.503 64.136C193.591 63.272 193.135 62.12 193.135 60.68V59.96C192.031 61.784 190.567 63.176 188.743 64.136C186.967 65.096 184.951 65.576 182.695 65.576C178.231 65.576 174.895 64.352 172.687 61.904C170.527 59.408 169.447 55.664 169.447 50.672V34.04C169.447 32.456 169.927 31.208 170.887 30.296C171.895 29.384 173.239 28.928 174.919 28.928C176.599 28.928 177.919 29.384 178.879 30.296C179.839 31.208 180.319 32.456 180.319 34.04V50.888C180.319 53 180.751 54.56 181.615 55.568C182.527 56.576 183.895 57.08 185.719 57.08C187.831 57.08 189.535 56.36 190.831 54.92C192.175 53.48 192.847 51.584 192.847 49.232V34.04C192.847 32.456 193.327 31.208 194.287 30.296C195.247 29.384 196.567 28.928 198.247 28.928ZM231.933 28.928C233.373 28.832 234.501 29.168 235.317 29.936C236.181 30.656 236.613 31.76 236.613 33.248C236.613 34.832 236.229 36.008 235.461 36.776C234.693 37.544 233.325 38.024 231.357 38.216L229.197 38.432C226.557 38.72 224.637 39.584 223.437 41.024C222.285 42.464 221.709 44.312 221.709 46.568V60.32C221.709 62 221.181 63.272 220.125 64.136C219.117 65 217.845 65.432 216.309 65.432C214.725 65.432 213.405 65 212.349 64.136C211.341 63.272 210.837 62 210.837 60.32V33.896C210.837 32.312 211.365 31.088 212.421 30.224C213.477 29.36 214.749 28.928 216.237 28.928C217.677 28.928 218.877 29.36 219.837 30.224C220.797 31.04 221.277 32.192 221.277 33.68V35.624C222.141 33.56 223.437 31.976 225.165 30.872C226.941 29.768 228.861 29.144 230.925 29L231.933 28.928ZM267.096 28.928C268.776 28.928 270.096 29.384 271.056 30.296C272.064 31.208 272.568 32.456 272.568 34.04V60.464C272.568 61.952 272.04 63.152 270.984 64.064C269.976 64.976 268.656 65.432 267.024 65.432C265.488 65.432 264.264 65 263.352 64.136C262.44 63.272 261.984 62.12 261.984 60.68V59.96C260.88 61.784 259.416 63.176 257.592 64.136C255.816 65.096 253.8 65.576 251.544 65.576C247.08 65.576 243.744 64.352 241.536 61.904C239.376 59.408 238.296 55.664 238.296 50.672V34.04C238.296 32.456 238.776 31.208 239.736 30.296C240.744 29.384 242.088 28.928 243.768 28.928C245.448 28.928 246.768 29.384 247.728 30.296C248.688 31.208 249.168 32.456 249.168 34.04V50.888C249.168 53 249.6 54.56 250.464 55.568C251.376 56.576 252.744 57.08 254.568 57.08C256.68 57.08 258.384 56.36 259.68 54.92C261.024 53.48 261.696 51.584 261.696 49.232V34.04C261.696 32.456 262.176 31.208 263.136 30.296C264.096 29.384 265.416 28.928 267.096 28.928ZM331.548 56.144C333.372 56.144 334.716 56.504 335.58 57.224C336.444 57.944 336.876 59.048 336.876 60.536C336.876 62.072 336.444 63.2 335.58 63.92C334.716 64.64 333.372 65 331.548 65H301.812C300.324 65 299.124 64.568 298.212 63.704C297.348 62.792 296.916 61.664 296.916 60.32C296.916 58.928 297.396 57.584 298.356 56.288L322.332 23.096H302.316C300.492 23.096 299.148 22.736 298.284 22.016C297.42 21.296 296.988 20.192 296.988 18.704C296.988 17.168 297.42 16.04 298.284 15.32C299.148 14.6 300.492 14.24 302.316 14.24H330.972C332.46 14.24 333.636 14.696 334.5 15.608C335.412 16.472 335.868 17.576 335.868 18.92C335.868 20.36 335.412 21.704 334.5 22.952L310.452 56.144H331.548ZM368.958 54.488C369.918 54.488 370.686 54.872 371.262 55.64C371.886 56.408 372.198 57.392 372.198 58.592C372.198 59.408 371.958 60.176 371.478 60.896C370.998 61.568 370.326 62.144 369.462 62.624C367.83 63.488 365.934 64.208 363.774 64.784C361.614 65.312 359.622 65.576 357.798 65.576C353.958 65.576 350.598 64.832 347.718 63.344C344.886 61.856 342.702 59.744 341.166 57.008C339.63 54.224 338.862 50.96 338.862 47.216C338.862 43.616 339.606 40.424 341.094 37.64C342.582 34.856 344.646 32.696 347.286 31.16C349.926 29.576 352.926 28.784 356.286 28.784C359.502 28.784 362.31 29.504 364.71 30.944C367.158 32.336 369.054 34.352 370.398 36.992C371.742 39.584 372.414 42.632 372.414 46.136C372.414 47.192 372.15 48.008 371.622 48.584C371.142 49.112 370.446 49.376 369.534 49.376H349.374C349.71 52.208 350.574 54.272 351.966 55.568C353.358 56.816 355.35 57.44 357.942 57.44C359.334 57.44 360.582 57.272 361.686 56.936C362.79 56.6 364.014 56.144 365.358 55.568C366.03 55.28 366.678 55.04 367.302 54.848C367.926 54.608 368.478 54.488 368.958 54.488ZM356.574 36.272C354.51 36.272 352.854 36.944 351.606 38.288C350.358 39.584 349.614 41.48 349.374 43.976H363.27C363.126 41.432 362.478 39.512 361.326 38.216C360.222 36.92 358.638 36.272 356.574 36.272ZM411.092 56.576C412.196 57.632 412.748 58.832 412.748 60.176C412.748 61.52 412.244 62.72 411.236 63.776C410.276 64.832 409.148 65.36 407.852 65.36C406.604 65.36 405.452 64.856 404.396 63.848L388.628 49.232V60.248C388.628 61.928 388.1 63.2 387.044 64.064C386.036 64.928 384.764 65.36 383.228 65.36C381.644 65.36 380.324 64.928 379.268 64.064C378.26 63.2 377.756 61.928 377.756 60.248V18.992C377.756 17.312 378.26 16.04 379.268 15.176C380.324 14.312 381.644 13.88 383.228 13.88C384.764 13.88 386.036 14.312 387.044 15.176C388.1 16.04 388.628 17.312 388.628 18.992V44.768L403.028 30.584C404.084 29.528 405.26 29 406.556 29C407.9 29 409.076 29.504 410.084 30.512C411.092 31.472 411.596 32.624 411.596 33.968C411.596 35.216 411.044 36.392 409.94 37.496L400.364 46.64L411.092 56.576ZM432.593 28.784C437.777 28.784 441.617 30.056 444.113 32.6C446.609 35.096 447.857 38.936 447.857 44.12V60.392C447.857 61.976 447.401 63.224 446.489 64.136C445.577 65 444.305 65.432 442.673 65.432C441.137 65.432 439.889 64.976 438.929 64.064C438.017 63.104 437.561 61.88 437.561 60.392V59.888C436.841 61.664 435.641 63.056 433.961 64.064C432.281 65.072 430.313 65.576 428.057 65.576C425.657 65.576 423.473 65.096 421.505 64.136C419.585 63.176 418.049 61.832 416.897 60.104C415.793 58.376 415.241 56.456 415.241 54.344C415.241 51.752 415.889 49.712 417.185 48.224C418.529 46.736 420.665 45.656 423.593 44.984C426.521 44.312 430.529 43.976 435.617 43.976H437.489V42.68C437.489 40.664 437.033 39.2 436.121 38.288C435.257 37.376 433.793 36.92 431.729 36.92C429.665 36.92 426.689 37.64 422.801 39.08C421.697 39.608 420.761 39.872 419.993 39.872C418.937 39.872 418.097 39.512 417.473 38.792C416.849 38.024 416.537 37.04 416.537 35.84C416.537 34.88 416.753 34.088 417.185 33.464C417.617 32.84 418.313 32.264 419.273 31.736C420.953 30.824 422.993 30.104 425.393 29.576C427.841 29.048 430.241 28.784 432.593 28.784ZM430.433 58.088C432.545 58.088 434.249 57.392 435.545 56C436.841 54.56 437.489 52.712 437.489 50.456V49.232H436.265C432.377 49.232 429.641 49.544 428.057 50.168C426.521 50.792 425.753 51.92 425.753 53.552C425.753 54.896 426.185 56 427.049 56.864C427.961 57.68 429.089 58.088 430.433 58.088Z" fill="url(#paint4_linear)"/>
</g>
<defs>
<linearGradient id="paint0_linear" x1="19.7112" y1="66.4988" x2="52.9473" y2="4.79115" gradientUnits="userSpaceOnUse">
<stop stop-color="#18F2E0"/>
<stop offset="0.421995" stop-color="#639EF6"/>
<stop offset="0.989583" stop-color="#F777E2"/>
</linearGradient>
<linearGradient id="paint1_linear" x1="45.0066" y1="36.6961" x2="18.1586" y2="48.3482" gradientUnits="userSpaceOnUse">
<stop stop-color="#00F8E3" stop-opacity="0.38"/>
<stop offset="1" stop-color="#CCFF00"/>
</linearGradient>
<linearGradient id="paint2_linear" x1="51.2451" y1="21.48" x2="30.8097" y2="26.6357" gradientUnits="userSpaceOnUse">
<stop stop-color="#FF6C02" stop-opacity="0.16"/>
<stop offset="0.989583" stop-color="#FAFF00" stop-opacity="0.76"/>
</linearGradient>
<linearGradient id="paint3_linear" x1="83.0218" y1="45.4802" x2="48.8067" y2="27.1068" gradientUnits="userSpaceOnUse">
<stop stop-color="#EB00FF" stop-opacity="0.26"/>
<stop offset="1" stop-color="#0081F8" stop-opacity="0.33"/>
</linearGradient>
<linearGradient id="paint4_linear" x1="459" y1="40.9995" x2="90" y2="40.9995" gradientUnits="userSpaceOnUse">
<stop stop-color="#CCFF00"/>
<stop offset="0.994213" stop-color="#00F8E3"/>
</linearGradient>
<clipPath id="clip0">
<rect width="452" height="79" fill="white"/>
</clipPath>
</defs>
</svg>
