<svg width="512" height="512" viewBox="0 0 512 512" fill="none" xmlns="http://www.w3.org/2000/svg">
<g clip-path="url(#clip0)">
<circle cx="254.487" cy="255.197" r="229.487" fill="url(#paint0_linear)"/>
<path d="M148.755 285.235C101.295 249.19 86.1663 159.173 107.303 79.1773C124.725 65.9607 141.289 53.9636 162.572 44.9344C170.721 41.4772 182.811 36.9437 195.613 33.5201C213.955 28.6151 231.058 26.9119 232.259 26.9119C233.461 26.9119 213.035 49.1396 199.218 108.013C190.911 146.29 193.434 201.224 211.233 226.962C229.032 252.7 238.457 273.782 244.875 303.858C257.264 352.706 262.444 413.44 254.487 484.084C232.716 382.545 196.214 321.28 148.755 285.235Z" fill="url(#paint1_linear)"/>
<path d="M216.516 236.792C182.208 188.062 187.88 96.7443 232.259 26.912C268.087 21.2593 311.834 33.5025 316.965 34.7218C322.096 35.941 366.227 49.7405 388.455 68.9646C388.455 68.9646 336.189 109.215 316.965 169.29C297.741 229.365 314.562 219.152 314.562 279.828C314.562 340.504 285.726 424.61 254.487 484.084C264.503 380.722 250.824 285.522 216.516 236.792Z" fill="url(#paint2_linear)"/>
<g style="mix-blend-mode:overlay">
<path d="M310.481 237.374C296.7 179.393 324.88 118.883 392 70.5001C424.917 97.208 438.103 115.981 462.5 159C482.834 204.503 488.721 242.25 480 303C457.767 377.876 424.418 431.615 338.5 468.5C306.862 480.327 288.311 482.973 254.487 484.084C302.136 391.814 324.262 295.354 310.481 237.374Z" fill="url(#paint3_linear)"/>
</g>
</g>
<defs>
<linearGradient id="paint0_linear" x1="125.326" y1="434.222" x2="340.395" y2="38.3264" gradientUnits="userSpaceOnUse">
<stop stop-color="#18F2E0"/>
<stop offset="0.421995" stop-color="#639EF6"/>
<stop offset="0.989583" stop-color="#F777E2"/>
</linearGradient>
<linearGradient id="paint1_linear" x1="289.349" y1="242.624" x2="115.131" y2="319.52" gradientUnits="userSpaceOnUse">
<stop stop-color="#00F8E3" stop-opacity="0.38"/>
<stop offset="1" stop-color="#CCFF00"/>
</linearGradient>
<linearGradient id="paint2_linear" x1="327.779" y1="144.659" x2="196.815" y2="177.699" gradientUnits="userSpaceOnUse">
<stop stop-color="#FF6C02" stop-opacity="0.16"/>
<stop offset="0.989583" stop-color="#FAFF00" stop-opacity="0.76"/>
</linearGradient>
<linearGradient id="paint3_linear" x1="531.426" y1="298.466" x2="312.152" y2="180.718" gradientUnits="userSpaceOnUse">
<stop stop-color="#FF4545" stop-opacity="0"/>
<stop offset="1" stop-color="#110CF7"/>
</linearGradient>
<clipPath id="clip0">
<rect width="512" height="512" fill="white"/>
</clipPath>
</defs>
</svg>
